# xmcd
#
# Track frame offsets: 
#        150
#        11885
#        26527
#        40652
#        53760
#        66465
#        79714
#        90158
#        103621
#        115700
#        129013
#        139957
#        154534
#        168576
#        180867
#        193133
#
# Disc length: 2724 seconds
#
# Revision: 0
# Processed by: cddbd v1.5.2PL0 Copyright (c) Steve Scherf et al.
# Submitted via: ExactAudioCopy v0.95a5
#
DISCID=c20aa210
DTITLE=Various Artist - The Best Of Country And Western CD2
DYEAR=2001
DGENRE=Country
TTITLE0=Johnny Preston - Running Bear
TTITLE1=Bellamy Brothers - Let Your Love Flow
TTITLE2=Frankie Lane - Jezebel
TTITLE3=Glen Campbell - Southern Nights
TTITLE4=Johnny Horton - North To Alaska
TTITLE5=Patti Page - Tennessee Waltz
TTITLE6=Floyd Cramer - San Antonio Rose
TTITLE7=Lynn Anderson - Rose Garden
TTITLE8=Johnny Cash - I Walk The Line
TTITLE9=Mitch Miller and His Orchestra - Yellow Rose Of Texas
TTITLE10=Roger Miller - King Of The Road
TTITLE11=Johnny Horton - Sink The Bismarck
TTITLE12=Freddy Fender - Wasted Days And Wasted Nights
TTITLE13=Claude King - Wolverton Mountain
TTITLE14=Tommy James - Draggin' The Line
TTITLE15=Don Gibson - Oh Lonesome Me
EXTD=
EXTT0=
EXTT1=
EXTT2=
EXTT3=
EXTT4=
EXTT5=
EXTT6=
EXTT7=
EXTT8=
EXTT9=
EXTT10=
EXTT11=
EXTT12=
EXTT13=
EXTT14=
EXTT15=
PLAYORDER=
